<svg width="40" height="40" viewBox="0 0 40 40" fill="none" xmlns="http://www.w3.org/2000/svg">
<path d="M15.2069 33.2559C15.1 33.2767 15 33.1948 15 33.0857V8.13572C15 8.00239 15.0944 7.88781 15.225 7.86281L24.7931 6.00309C24.9 5.98225 25 6.0642 25 6.17322V22.2621C23.9014 23.3475 23.2188 24.8538 23.2188 26.517C23.2188 28.2614 23.7938 29.6218 24.8771 31.1767C24.934 31.2586 24.8875 31.3725 24.7889 31.392L15.2069 33.2559ZM38.0194 6.21906L26.3618 3.95309C26.0819 3.89892 25.7938 3.89892 25.5139 3.95309L14.2618 6.14059C14.1306 6.16628 13.9958 6.16628 13.8646 6.14059L2.07708 3.84892C1.64861 3.76559 1.25 4.09406 1.25 4.53086V32.1538C1.25 32.5857 1.55625 32.9573 1.98056 33.0399L13.6382 35.3059C13.9181 35.36 14.2063 35.36 14.4861 35.3059L25.8444 33.0982C25.9056 33.0864 25.9688 33.0864 26.0299 33.0982L26.3194 33.1545C26.3826 33.167 26.4396 33.2003 26.4806 33.2503C26.8035 33.6427 27.1479 34.0545 27.516 34.4934C27.8208 34.8573 28.1431 35.242 28.4819 35.6496L28.7222 35.9392C28.9722 36.2406 29.434 36.2406 29.684 35.9392L29.9243 35.6496C30.2667 35.2371 30.591 34.8489 30.8986 34.4816C30.9694 34.3968 31.0389 34.3135 31.1083 34.2316C31.1729 34.1538 31.275 34.1177 31.3743 34.1371L37.9229 35.41C38.3514 35.4934 38.75 35.1649 38.75 34.7281V7.10517C38.75 6.67322 38.4438 6.3017 38.0194 6.21906ZM12.9181 33.2559L3.35 31.3954C3.28667 31.3831 3.22959 31.3491 3.18854 31.2994C3.1475 31.2496 3.12503 31.1871 3.125 31.1225V6.17322C3.125 6.0642 3.22431 5.98225 3.33194 6.00309L12.9 7.86281C13.0306 7.8885 13.125 8.00239 13.125 8.13572V33.085C13.125 33.1941 13.0257 33.2767 12.9181 33.2559ZM29.4618 33.2774C29.4201 33.3267 29.3785 33.3767 29.3361 33.4274C29.2667 33.51 29.1389 33.51 29.0694 33.4274L28.9535 33.2885C26.3035 30.1246 25.0938 28.6802 25.0938 26.517C25.0938 24.251 26.9375 22.4073 29.2035 22.4073C31.4694 22.4073 33.3125 24.251 33.3125 26.517C33.3125 28.6781 32.1056 30.1198 29.4618 33.2774ZM36.6681 33.2559L32.7896 32.5017C32.6875 32.4823 32.6424 32.3614 32.7063 32.2802C34.3194 30.2239 35.1868 28.6614 35.1868 26.5177C35.1868 23.2177 32.5021 20.5329 29.2028 20.5329C28.4486 20.5329 27.7271 20.6732 27.0618 20.9288C26.9715 20.9635 26.8743 20.8961 26.8743 20.7989V6.17322C26.8743 6.0642 26.9736 5.98225 27.0813 6.00309L36.6493 7.86281C36.7799 7.8885 36.8743 8.00239 36.8743 8.13572V33.085C36.8745 33.1107 36.8689 33.136 36.8581 33.1592C36.8472 33.1824 36.8314 33.203 36.8116 33.2193C36.7919 33.2356 36.7688 33.2474 36.744 33.2537C36.7191 33.26 36.6932 33.2608 36.6681 33.2559Z" fill="black"/>
<path d="M29.2035 23.5C27.5403 23.5 26.1875 24.8528 26.1875 26.516C26.1875 28.1785 27.5403 29.5312 29.2035 29.5312C30.866 29.5312 32.2188 28.1785 32.2188 26.516C32.2188 24.8528 30.866 23.5 29.2035 23.5ZM29.2035 27.6562C28.5743 27.6562 28.0625 27.1444 28.0625 26.516C28.0625 25.8868 28.5743 25.375 29.2035 25.375C29.8326 25.375 30.3438 25.8868 30.3438 26.516C30.3438 27.1444 29.8319 27.6562 29.2035 27.6562Z" fill="black"/>
</svg>
