<svg width="40" height="40" viewBox="0 0 40 40" fill="none" xmlns="http://www.w3.org/2000/svg">
<g clip-path="url(#clip0_203_176)">
<path d="M20.0326 7.5C13.1472 7.48264 7.57847 12.9715 7.50069 19.8563C7.45972 23.5014 8.97986 26.7924 11.4333 29.1028C12.5576 30.1611 13.2063 31.6278 13.2063 33.1715V39.1667C13.2063 39.6271 13.5792 40 14.0396 40H26.0417C26.5021 40 26.875 39.6271 26.875 39.1667V33.0944C26.875 31.5639 27.5118 30.1076 28.6201 29.0521C31.0333 26.7535 32.5285 23.5 32.5 19.8979C32.4444 13.0243 26.9021 7.51736 20.0326 7.5ZM15.0819 37.9167V36.1458C15.0819 36.0306 15.175 35.9375 15.2903 35.9375H24.7917C24.9069 35.9375 25 36.0306 25 36.1458V37.9167C25 38.0319 24.9069 38.125 24.7917 38.125H15.2903C15.175 38.125 15.0819 38.0319 15.0819 37.9167ZM29.7556 24.2167C29.1868 25.5299 28.3708 26.6993 27.3292 27.6917C25.8486 29.1028 24.9993 31.0722 24.9993 33.0944V33.8542C24.9993 33.9694 24.9062 34.0625 24.791 34.0625H15.2903C15.175 34.0625 15.0819 33.9694 15.0819 33.8542V33.1715C15.0819 31.1326 14.2194 29.1514 12.7167 27.7354C11.6722 26.7514 10.85 25.5903 10.2736 24.2833C9.67708 22.9319 9.375 21.491 9.375 20C9.375 17.1458 10.4931 14.4632 12.5222 12.4521C14.5208 10.4715 17.241 9.36111 20.0549 9.375C22.866 9.38889 25.5049 10.4792 27.4903 12.4486C29.4889 14.4306 30.6021 17.0812 30.625 19.9125C30.6368 21.409 30.3444 22.8576 29.7556 24.2167ZM19.4792 5H20.5208C20.7507 5 20.9375 4.81319 20.9375 4.58333V0.416667C20.9375 0.186806 20.7507 0 20.5208 0H19.4792C19.2493 0 19.0625 0.186806 19.0625 0.416667V4.58333C19.0625 4.81319 19.2493 5 19.4792 5ZM4.58333 19.0625H0.416667C0.186806 19.0625 0 19.2493 0 19.4792V20.5208C0 20.7507 0.186806 20.9375 0.416667 20.9375H4.58333C4.81319 20.9375 5 20.7507 5 20.5208V19.4792C5 19.2493 4.81319 19.0625 4.58333 19.0625ZM39.5833 19.0625H35.4167C35.1868 19.0625 35 19.2493 35 19.4792V20.5208C35 20.7507 35.1868 20.9375 35.4167 20.9375H39.5833C39.8132 20.9375 40 20.7507 40 20.5208V19.4792C40 19.2493 39.8132 19.0625 39.5833 19.0625ZM33.7736 5.48958C33.6111 5.32708 33.3472 5.32708 33.184 5.48958L30.2375 8.43611C30.075 8.59861 30.075 8.8625 30.2375 9.02569L30.9743 9.7625C31.1368 9.925 31.4007 9.925 31.5639 9.7625L34.5104 6.81597C34.6729 6.65347 34.6729 6.38958 34.5104 6.22639L33.7736 5.48958ZM8.95139 9.83542L9.76181 9.025C9.92431 8.8625 9.92431 8.59861 9.76181 8.43542L6.81528 5.48958C6.65278 5.32708 6.38889 5.32708 6.22569 5.48958L5.48958 6.22639C5.32708 6.38889 5.32708 6.65278 5.48958 6.81597L8.50972 9.83611C8.56841 9.89454 8.64789 9.92729 8.7307 9.92716C8.81351 9.92703 8.89289 9.89403 8.95139 9.83542Z" fill="black"/>
<path d="M27.8003 19.5601C27.8135 19.8004 27.6246 20.0031 27.3843 20.0031H26.3413C26.1225 20.0031 25.9399 19.8344 25.926 19.6163C25.9197 19.5175 25.9109 19.4189 25.8996 19.3205C25.5746 16.4983 23.2635 14.2719 20.4031 14.0795L20.394 14.0788C20.2874 14.0718 20.1875 14.0245 20.1145 13.9464C20.0415 13.8684 20.0009 13.7655 20.001 13.6587V12.6198C20.001 12.3795 20.2038 12.19 20.444 12.2038C24.3996 12.4254 27.5781 15.6045 27.8003 19.5601Z" fill="black"/>
</g>
<defs>
<clipPath id="clip0_203_176">
<rect width="40" height="40" fill="white"/>
</clipPath>
</defs>
</svg>
