<svg width="40" height="40" viewBox="0 0 40 40" fill="none" xmlns="http://www.w3.org/2000/svg">
<g clip-path="url(#clip0_203_265)">
<path d="M8.01432 12.7188H15.4518C15.6817 12.7188 15.8685 12.5319 15.8685 12.3021V11.2604C15.8685 11.0306 15.6817 10.8438 15.4518 10.8438H8.01432C7.78446 10.8438 7.59766 11.0306 7.59766 11.2604V12.3021C7.59766 12.5319 7.78446 12.7188 8.01432 12.7188ZM8.01432 17.3847H15.4518C15.6817 17.3847 15.8685 17.1979 15.8685 16.9681V15.9264C15.8685 15.6965 15.6817 15.5097 15.4518 15.5097H8.01432C7.78446 15.5097 7.59766 15.6965 7.59766 15.9264V16.9681C7.59766 17.1979 7.78446 17.3847 8.01432 17.3847ZM8.01432 22.0507H15.4518C15.6817 22.0507 15.8685 21.8639 15.8685 21.634V20.5924C15.8685 20.3625 15.6817 20.1757 15.4518 20.1757H8.01432C7.78446 20.1757 7.59766 20.3625 7.59766 20.5924V21.634C7.59766 21.8639 7.78446 22.0507 8.01432 22.0507ZM29.4852 10.8438H22.0477C21.8178 10.8438 21.631 11.0306 21.631 11.2604V12.3021C21.631 12.5319 21.8178 12.7188 22.0477 12.7188H29.4852C29.715 12.7188 29.9018 12.5319 29.9018 12.3021V11.2604C29.9018 11.0299 29.715 10.8438 29.4852 10.8438ZM29.4852 15.5097H22.0477C21.8178 15.5097 21.631 15.6965 21.631 15.9264V16.9681C21.631 17.1979 21.8178 17.3847 22.0477 17.3847H29.4852C29.715 17.3847 29.9018 17.1979 29.9018 16.9681V15.9264C29.9018 15.6958 29.715 15.5097 29.4852 15.5097ZM25.3497 20.1757H22.0477C21.8178 20.1757 21.631 20.3625 21.631 20.5924V21.634C21.631 21.8639 21.8178 22.0507 22.0477 22.0507H25.3497C25.5796 22.0507 25.7664 21.8639 25.7664 21.634V20.5924C25.7664 20.3625 25.5796 20.1757 25.3497 20.1757Z" fill="black"/>
<path d="M36.6667 6.42847H33.5757V4.80208C33.5757 4.34167 33.2028 3.96875 32.7424 3.96875H21.1389C20.2951 3.96875 19.525 4.28472 18.9375 4.80417C18.8859 4.85045 18.819 4.87605 18.7497 4.87605C18.6803 4.87605 18.6134 4.85045 18.5618 4.80417C17.975 4.28472 17.2042 3.96875 16.3611 3.96875H4.75764C4.29722 3.96875 3.92431 4.34167 3.92431 4.80208V6.42917H0.833333C0.372917 6.42917 0 6.80208 0 7.2625V31.9792C0 32.4396 0.372917 32.8125 0.833333 32.8125H14.8604C14.9667 32.8125 15.0583 32.8875 15.0778 32.9924C15.4056 34.7208 16.9271 36.0326 18.75 36.0326C20.5729 36.0326 22.0944 34.7208 22.4222 32.9924C22.4424 32.8882 22.5333 32.8125 22.6396 32.8125H36.6667C37.1271 32.8125 37.5 32.4396 37.5 31.9792V7.26181C37.5 6.80208 37.1271 6.42847 36.6667 6.42847ZM21.1389 5.84375H31.4924C31.6076 5.84375 31.7007 5.93681 31.7007 6.05208V27.0271C31.7007 27.1424 31.6076 27.2354 31.4924 27.2354H21.1389C20.7097 27.2354 20.2993 27.3174 19.9222 27.466C19.809 27.5104 19.6875 27.425 19.6875 27.3035V7.29097C19.6903 6.49236 20.3403 5.84375 21.1389 5.84375ZM5.79931 6.05208C5.79931 5.93681 5.89236 5.84375 6.00764 5.84375H16.3611C17.1597 5.84375 17.8104 6.49236 17.8125 7.29097V27.3035C17.8125 27.425 17.6903 27.5104 17.5778 27.466C17.1903 27.3133 16.7776 27.2351 16.3611 27.2354H6.00764C5.89236 27.2354 5.79931 27.1424 5.79931 27.0271V6.05208ZM2.08333 8.30347H3.71597C3.83125 8.30347 3.92431 8.39653 3.92431 8.51181V28.2764C3.92431 28.7368 4.29722 29.1097 4.75764 29.1097H16.3611C17.1597 29.1097 17.8104 29.7583 17.8125 30.5569V30.7278C17.8125 30.8431 17.7194 30.9361 17.6042 30.9361H2.08333C1.96806 30.9361 1.875 30.8431 1.875 30.7278V8.51181C1.875 8.39722 1.96806 8.30347 2.08333 8.30347ZM18.75 34.1562C18 34.1562 17.3521 33.7104 17.0569 33.0694C17.0014 32.9486 17.0875 32.8111 17.2201 32.8111H20.2799C20.4125 32.8111 20.4986 32.9486 20.4431 33.0694C20.1479 33.7104 19.5 34.1562 18.75 34.1562ZM35.4167 30.9368H19.8958C19.7806 30.9368 19.6875 30.8437 19.6875 30.7285V30.5576C19.6903 29.759 20.3403 29.1104 21.1389 29.1104H32.7424C33.2028 29.1104 33.5757 28.7375 33.5757 28.2771V8.51181C33.5757 8.39653 33.6688 8.30347 33.784 8.30347H35.4167C35.5319 8.30347 35.625 8.39653 35.625 8.51181V30.7285C35.625 30.8437 35.5319 30.9368 35.4167 30.9368Z" fill="black"/>
</g>
<defs>
<clipPath id="clip0_203_265">
<rect width="40" height="40" fill="white"/>
</clipPath>
</defs>
</svg>
