<svg width="40" height="40" viewBox="0 0 40 40" fill="none" xmlns="http://www.w3.org/2000/svg">
<g clip-path="url(#clip0_203_154)">
<path d="M33.597 36.4649C33.5317 36.4649 33.4657 36.4579 33.3998 36.444C33.0192 36.3628 32.7338 36.044 32.6657 35.6607L32.2817 33.4864C32.2758 33.4537 32.2585 33.4242 32.2328 33.4032C32.207 33.3822 32.1746 33.3711 32.1414 33.3718L31.1199 33.3961C30.9748 33.4003 30.831 33.369 30.6998 33.3079L26.622 31.4003C26.5637 31.3732 26.4984 31.3621 26.4345 31.3697L23.1713 31.7538C22.7442 31.8038 22.338 31.5586 22.1838 31.1572L21.5678 29.5552C21.5574 29.5282 21.5415 29.5037 21.5211 29.4832C21.5007 29.4627 21.4763 29.4467 21.4494 29.4361C21.4226 29.4256 21.3938 29.4207 21.3649 29.4218C21.336 29.4229 21.3077 29.43 21.2817 29.4427L20.8199 29.669C20.7296 29.7135 20.6838 29.8163 20.7116 29.9135L21.263 31.8413C21.3512 32.1503 21.2769 32.4885 21.0532 32.7343C20.9248 32.876 20.7525 32.9697 20.5671 33.0177L17.8185 33.7225C17.6424 33.7676 17.457 33.7608 17.2847 33.7027C17.1124 33.6447 16.9606 33.5379 16.8477 33.3954L14.072 29.8906C14.0502 29.8629 14.0218 29.8413 13.9893 29.8277C13.9569 29.8141 13.9215 29.809 13.8866 29.8128L10.3713 30.1836C10.1699 30.2045 9.96782 30.1607 9.79421 30.0579L8.5956 29.3489C8.52963 29.3093 8.44699 29.31 8.38102 29.3503L4.67477 31.6135C4.52293 31.7062 4.3479 31.7539 4.17002 31.7511C3.99214 31.7483 3.81872 31.695 3.66991 31.5975L0.426157 29.4725C0.116434 29.2697 -0.0530101 28.8975 0.0164344 28.5142C0.0497677 28.3302 0.143518 28.1621 0.271296 28.0253L1.91921 26.2746C1.95577 26.2359 1.97614 26.1848 1.97616 26.1315V22.9732C1.97616 22.7343 2.06713 22.5045 2.23102 22.3295L3.7713 20.6871C3.84421 20.6093 3.80671 20.4822 3.70324 20.4565L2.13588 20.0656C1.93231 20.0148 1.75157 19.8974 1.62245 19.732C1.49333 19.5667 1.42326 19.3629 1.42338 19.1531V16.3434C1.42338 16.0565 1.55393 15.7857 1.77824 15.6072L3.28171 14.4114C3.3081 14.3906 3.32616 14.3607 3.33241 14.3274L3.85255 11.4663C3.89421 11.2364 4.01157 11.0225 4.19491 10.8774C4.34307 10.7593 4.52344 10.6887 4.7124 10.6748C4.90136 10.6609 5.09011 10.7044 5.25393 10.7996L7.81435 12.2885C7.82476 12.2946 7.83658 12.2978 7.84863 12.2979C7.86069 12.2981 7.87257 12.295 7.8831 12.2892L7.89005 12.285C7.92546 12.2656 7.93657 12.2197 7.91435 12.1857L7.26782 11.2052C7.13289 11.0003 7.0833 10.7509 7.12963 10.51L7.48518 8.66002C7.52636 8.44544 7.64104 8.25192 7.80948 8.11275C7.97793 7.97359 8.18961 7.89748 8.4081 7.89752H10.2567C10.3914 7.89752 10.5137 7.81974 10.5713 7.69821L11.4706 5.80238C11.6262 5.47391 11.9567 5.26488 12.3199 5.26488H13.9505C14.4088 5.26488 14.8005 5.59543 14.8775 6.04752L15.1657 7.74474C15.1795 7.82581 15.2215 7.89941 15.2843 7.95253C15.347 8.00565 15.4266 8.03487 15.5088 8.03502H17.422C17.4762 8.03502 17.5289 8.02252 17.5775 7.99821L20.5387 6.52043C20.6414 6.46905 20.7123 6.37043 20.7282 6.25655L20.9199 4.86696C20.9706 4.50029 21.2317 4.19682 21.5873 4.09266L23.4428 3.5496C23.7935 3.44682 24.172 3.55724 24.4137 3.83154L26.8262 6.57946C26.9984 6.7753 27.081 7.03432 27.0553 7.29405C27.0289 7.55377 26.8963 7.79127 26.688 7.94891L25.2769 9.01974C25.2423 9.04585 25.2167 9.08211 25.2038 9.12345C25.1909 9.16478 25.1911 9.20913 25.2046 9.2503L25.8213 11.1399C25.8352 11.1828 25.8627 11.2201 25.8997 11.246C25.9367 11.2719 25.981 11.2851 26.0262 11.2836L27.4414 11.2392C27.5666 11.235 27.6914 11.256 27.8083 11.3009C27.9252 11.3459 28.0319 11.4139 28.122 11.501L29.9005 13.2086C29.9919 13.2964 30.0646 13.4017 30.1142 13.5183C30.1639 13.6349 30.1894 13.7604 30.1894 13.8871V15.3565C30.1894 15.4063 30.2072 15.4544 30.2395 15.4922C30.2719 15.53 30.3166 15.555 30.3657 15.5628L32.3803 15.8746C32.8387 15.9454 33.1769 16.3399 33.1769 16.8038V18.8121C33.1769 18.9642 33.14 19.1135 33.0699 19.2475L31.1407 22.9371C31.1039 23.0072 31.1338 23.094 31.2053 23.1274L31.3269 23.1836C31.3782 23.2072 31.4394 23.1975 31.4803 23.1586L32.3998 22.2878C32.5362 22.1586 32.7082 22.0732 32.8937 22.0427C33.0791 22.0123 33.2694 22.0381 33.44 22.117L36.415 23.4906C36.5285 23.5432 36.6304 23.6178 36.7147 23.7101C36.7991 23.8023 36.8644 23.9104 36.9067 24.0281L37.1331 24.6628C37.1525 24.7184 37.2053 24.7552 37.2637 24.7552H39.0373C39.2817 24.7552 39.5227 24.8399 39.7005 25.0072C39.8444 25.1416 39.9426 25.3177 39.9812 25.5108C40.0198 25.7039 39.9969 25.9042 39.9157 26.0836L38.7227 28.7149C38.697 28.7718 38.6977 28.8378 38.7262 28.894L39.2637 29.9697C39.4699 30.3829 39.3463 30.885 38.9706 31.1545L36.0421 33.0968C36.0255 33.1086 35.8657 33.392 35.8553 33.4093L34.4171 35.9829C34.3359 36.1291 34.217 36.2509 34.0727 36.3357C33.9285 36.4204 33.7643 36.465 33.597 36.4649ZM33.0463 31.4704C33.5012 31.4704 33.7505 31.6392 33.8331 32.2468L33.89 33.0565C33.8887 33.2357 34.097 33.2357 34.1664 33.0274L34.5137 32.0552C34.5831 31.8468 34.6789 31.7885 34.7914 31.7079L37.0796 30.2003C37.163 30.1406 37.19 30.0295 37.1442 29.9378L36.7998 29.2489C36.7372 29.1237 36.7034 28.9861 36.7007 28.8461C36.6981 28.7062 36.7267 28.5674 36.7845 28.4399L37.5567 26.7364C37.5615 26.7258 37.5636 26.7142 37.5628 26.7027C37.5619 26.6911 37.5582 26.6799 37.5519 26.6702C37.5456 26.6604 37.5369 26.6524 37.5267 26.6469C37.5165 26.6413 37.5051 26.6385 37.4935 26.6385H36.5032C36.106 26.6385 35.7512 26.3885 35.6178 26.0142L35.2977 25.117C35.2789 25.0642 35.2394 25.0211 35.1887 24.9975L33.3581 24.1524C33.281 24.117 33.1894 24.1315 33.1275 24.1906L32.2421 25.0295C32.1056 25.1587 31.9334 25.2441 31.7478 25.2745C31.5623 25.305 31.3719 25.2791 31.2012 25.2003L29.4123 24.3725C29.2359 24.2913 29.0817 24.1642 28.9803 23.9989C28.8954 23.8603 28.8479 23.702 28.8424 23.5395C28.8369 23.377 28.8737 23.2159 28.9491 23.0718L31.272 18.6288C31.2873 18.5989 31.2956 18.5656 31.2956 18.5322V17.7906C31.2956 17.7408 31.2778 17.6927 31.2454 17.6549C31.2131 17.6171 31.1683 17.5921 31.1192 17.5843L29.1046 17.2725C28.6463 17.2017 28.3081 16.8072 28.3081 16.3434V14.3788C28.3081 14.3218 28.2852 14.2677 28.2442 14.2288L27.2095 13.2357C27.1761 13.2037 27.1367 13.1787 27.0935 13.1621C27.0504 13.1455 27.0043 13.1378 26.9581 13.1392L25.2234 13.1934C24.806 13.2079 24.4296 12.9427 24.3005 12.5454L23.1623 9.06002C23.038 8.67877 23.1685 8.26141 23.488 8.01904L24.5678 7.1996C24.5906 7.18232 24.6097 7.16052 24.6237 7.13555C24.6377 7.11059 24.6464 7.08301 24.6493 7.05453C24.6521 7.02604 24.6491 6.99728 24.6403 6.97002C24.6316 6.94277 24.6173 6.91761 24.5984 6.89613L23.4831 5.62529C23.4569 5.5954 23.4228 5.57362 23.3846 5.56255C23.3465 5.55147 23.3059 5.55156 23.2678 5.5628L22.8289 5.69127C22.7505 5.71418 22.6921 5.78155 22.681 5.8628L22.4984 7.18918C22.456 7.49682 22.2644 7.76349 21.9866 7.90238L18.1456 9.81905C18.015 9.88432 17.8713 9.91766 17.7262 9.91766H14.4213C13.963 9.91766 13.5713 9.5871 13.4942 9.13502L13.1762 7.26349C13.165 7.19682 13.1067 7.14752 13.0387 7.14752C12.963 7.14752 12.8935 7.19127 12.8609 7.26002L11.9206 9.24266C11.765 9.57113 11.4345 9.78016 11.0713 9.78016H9.35671C9.30817 9.78011 9.26114 9.79702 9.22374 9.82795C9.18634 9.85889 9.16091 9.90192 9.15185 9.9496L9.0581 10.4357C9.05116 10.4711 9.0588 10.5086 9.07893 10.5385L10.0734 12.0468C10.156 12.1718 10.2137 12.3135 10.231 12.4621C10.2769 12.8545 10.0803 13.217 9.75602 13.3982L8.29768 14.2135C8.15517 14.2932 7.99434 14.3345 7.83105 14.3331C7.66775 14.3318 7.50762 14.2879 7.36643 14.2059L5.72407 13.2489C5.59907 13.176 5.43935 13.2496 5.41366 13.392L5.10949 15.0635C5.06852 15.2878 4.94768 15.4892 4.76991 15.6315L3.35602 16.7559C3.32268 16.7822 3.30324 16.8225 3.30324 16.8649V18.2559C3.30324 18.3517 3.36852 18.4357 3.46157 18.4586L5.94213 19.0774C6.10112 19.1171 6.24698 19.1976 6.36525 19.311C6.48352 19.4245 6.57011 19.5668 6.61642 19.724C6.66274 19.8812 6.66717 20.0478 6.62929 20.2072C6.59141 20.3666 6.51253 20.5134 6.40046 20.6329L3.89421 23.3052C3.86991 23.3309 3.85671 23.3649 3.85671 23.4003V26.5878C3.85671 26.8274 3.76505 27.0579 3.60116 27.2322L2.50741 28.3934C2.44768 28.4565 2.46018 28.5579 2.53241 28.6052L4.09143 29.6267C4.1588 29.6711 4.2456 29.6718 4.31435 29.6302L7.99005 27.3857C8.28657 27.2045 8.65949 27.2017 8.9588 27.3788L10.4241 28.2461C10.463 28.269 10.5074 28.2788 10.5519 28.2739L14.3171 27.8767C14.638 27.8434 14.9525 27.9753 15.1525 28.2281L17.8574 31.644C17.9088 31.7086 17.9928 31.7371 18.0727 31.7163L18.9803 31.4836C19.0942 31.4545 19.1609 31.3371 19.1289 31.2246L18.638 29.5079C18.5774 29.2959 18.5933 29.0693 18.6827 28.8678C18.7722 28.6662 18.9297 28.5025 19.1275 28.4052L21.5595 27.2114C21.7171 27.1336 21.8928 27.0934 22.0678 27.1086C22.4373 27.1399 22.7428 27.3781 22.8699 27.7086L23.6164 29.6503C23.633 29.6935 23.6636 29.7299 23.7032 29.7538C23.7428 29.7777 23.7892 29.7877 23.8352 29.7822L26.5769 29.46C26.7505 29.4392 26.9269 29.4677 27.0852 29.542L31.2213 31.4767C31.2699 31.4996 31.3227 31.5107 31.3769 31.5093L33.0234 31.4704H33.0463Z" fill="black"/>
<path d="M20.9002 15.9313C21.9515 15.9313 22.8071 16.7869 22.8071 17.839C22.8071 18.7265 22.3481 20.1911 20.1599 22.1341C19.4502 22.764 18.7307 23.2855 18.1696 23.6598C18.0772 23.7216 17.9578 23.7216 17.8654 23.6598C17.3043 23.2855 16.5849 22.764 15.8752 22.1341C13.687 20.1918 13.2279 18.7265 13.2279 17.839C13.2279 16.7869 14.0835 15.9313 15.1349 15.9313C15.6939 15.9313 16.2231 16.1758 16.587 16.6029C16.7557 16.8015 17.0856 17.1855 17.3856 17.5348C17.7182 17.9223 18.3168 17.9223 18.6495 17.5348C18.9495 17.1855 19.2793 16.8015 19.4481 16.6029C19.6269 16.3923 19.8495 16.2232 20.1002 16.1073C20.3509 15.9913 20.6239 15.9313 20.9002 15.9313ZM20.9002 14.0508C19.821 14.0508 18.8481 14.5022 18.1578 15.2265C18.1397 15.2456 18.1179 15.2608 18.0937 15.2711C18.0695 15.2815 18.0435 15.2869 18.0172 15.2869C17.9909 15.2869 17.9648 15.2815 17.9406 15.2711C17.9165 15.2608 17.8947 15.2456 17.8765 15.2265C17.187 14.5022 16.2133 14.0508 15.1342 14.0508C13.0425 14.0508 11.3467 15.7466 11.3467 17.839C11.3467 21.523 15.8092 24.6147 17.4342 25.6181C17.6094 25.7264 17.8112 25.7838 18.0172 25.7838C18.2231 25.7838 18.425 25.7264 18.6002 25.6181C20.2252 24.6147 24.6877 21.523 24.6877 17.839C24.6877 15.7466 22.9918 14.0508 20.9002 14.0508Z" fill="black"/>
</g>
<defs>
<clipPath id="clip0_203_154">
<rect width="40" height="40" fill="white"/>
</clipPath>
</defs>
</svg>
