<svg width="40" height="40" viewBox="0 0 40 40" fill="none" xmlns="http://www.w3.org/2000/svg">
<path d="M20 31.875C13.4521 31.875 8.125 26.5479 8.125 20C8.125 13.4521 13.4521 8.125 20 8.125C26.5479 8.125 31.875 13.4521 31.875 20C31.875 26.5479 26.5479 31.875 20 31.875ZM20 10C14.4861 10 10 14.4861 10 20C10 25.5139 14.4861 30 20 30C25.5139 30 30 25.5139 30 20C30 14.4861 25.5139 10 20 10Z" fill="black"/>
<path d="M20.0352 15.7969C20.5529 15.7969 20.9727 15.3771 20.9727 14.8594C20.9727 14.3416 20.5529 13.9219 20.0352 13.9219C19.5174 13.9219 19.0977 14.3416 19.0977 14.8594C19.0977 15.3771 19.5174 15.7969 20.0352 15.7969Z" fill="black"/>
<path d="M20.5208 26.0764H19.4792C19.2493 26.0764 19.0625 25.8896 19.0625 25.6597V18.8542C19.0625 18.6243 19.2493 18.4375 19.4792 18.4375H20.5208C20.7507 18.4375 20.9375 18.6243 20.9375 18.8542V25.6597C20.9375 25.8896 20.7507 26.0764 20.5208 26.0764Z" fill="black"/>
</svg>
