<?xml version="1.0" encoding="UTF-8"?><svg xmlns="http://www.w3.org/2000/svg" viewBox="0 0 1559.06 283.46"><g id="uuid-70e80b3a-f88c-47ff-905b-8617abeb3f02"><path d="M0,0v283.46h1559.06V0H0ZM708.66,277.8H5.67V5.67h702.99v272.13ZM1275.59,277.8h-561.26V5.67h561.26v272.13ZM1553.39,277.8h-272.13V5.67h272.13v272.13Z" style="fill:#1d1d1b;"/><path d="M1194.21,96.01v62.43c0,.81-.54,1.08-.95.27l-35.63-63.24c-.41-.67-1.22-1.08-2.03-1.08h-15.25c-.95,0-1.62.67-1.62,1.62v91.16c0,.94.67,1.62,1.62,1.62h13.23c.95,0,1.62-.68,1.62-1.62v-62.3c0-.81.54-1.08.95-.27l35.63,63.11c.41.68,1.22,1.08,2.03,1.08h15.25c.95,0,1.62-.68,1.62-1.62v-91.16c0-.95-.67-1.62-1.62-1.62h-13.23c-.94,0-1.62.67-1.62,1.62M1098.85,188.79h13.36c.94,0,1.62-.68,1.62-1.62v-91.16c0-.95-.67-1.62-1.62-1.62h-13.36c-.94,0-1.62.67-1.62,1.62v91.16c0,.94.67,1.62,1.62,1.62M1045.57,172.34v-76.32c0-.95-.67-1.62-1.62-1.62h-13.36c-.94,0-1.62.67-1.62,1.62v91.16c0,.94.67,1.62,1.62,1.62h46.02c.95,0,1.62-.68,1.62-1.62v-12.41c0-.94-.67-1.62-1.62-1.62h-30.23c-.54,0-.81-.4-.81-.81M958.27,110.04h12.28c10.93,0,19.7,5.8,19.7,17.8s-8.77,17.8-19.84,17.8h-12.15c-.54,0-.81-.4-.81-.81v-33.98c0-.54.27-.81.81-.81M989.59,188.79h17c1.35,0,1.75-.95.95-2.02l-20.25-27.37c-.27-.4-.27-.94.27-1.21,12.01-4.85,19.98-15.51,19.98-30.34,0-21.04-15.93-33.44-36.17-33.44h-28.88c-.95,0-1.62.67-1.62,1.62v91.16c0,.94.67,1.62,1.62,1.62h13.36c.94,0,1.62-.68,1.62-1.62v-25.08c0-.54.4-.81.81-.81h10.26c.41,0,.81.27,1.08.54l18.09,25.89c.41.68,1.08,1.08,1.89,1.08M916.33,108.42v-12.41c0-.95-.67-1.62-1.62-1.62h-49.13c-.95,0-1.62.67-1.62,1.62v91.16c0,.94.67,1.62,1.62,1.62h49.13c.95,0,1.62-.68,1.62-1.62v-12.41c0-.94-.67-1.62-1.62-1.62h-33.47c-.54,0-.81-.4-.81-.81v-22.66c0-.54.41-.81.81-.81h33.47c.95,0,1.62-.67,1.62-1.62v-12.27c0-.95-.67-1.62-1.62-1.62h-33.47c-.54,0-.81-.27-.81-.81v-21.71c0-.54.41-.81.81-.81h33.47c.95,0,1.62-.67,1.62-1.62M811.11,173.14h-14.31c-.54,0-.81-.4-.81-.81v-22.66c0-.54.27-.81.81-.81h14.31c8.77,0,13.63,4.99,13.63,12.14s-4.86,12.13-13.63,12.13M809.76,110.04c8.5,0,13.22,4.59,13.22,11.6s-4.72,11.73-13.22,11.73h-12.96c-.54,0-.81-.27-.81-.81v-21.71c0-.54.27-.81.81-.81h12.96ZM829.46,139.7c6.75-4.31,10.8-11.06,10.8-19.82,0-14.43-9.99-25.49-28.34-25.49h-30.77c-.94,0-1.62.67-1.62,1.62v91.16c0,.94.67,1.62,1.62,1.62h31.99c18.89,0,28.88-11.46,28.88-26.56,0-9.84-4.72-17.26-12.55-21.44-.54-.4-.54-.81,0-1.08" style="fill:#e40521;"/><path d="M1458.97,222.16s-4.96-32.87-7.3-46.72c.66-.14,1.02-.22,1.02-.22,2.17-.38,2.99-2.86,2.02-4.53-5.61-9.66-7.61-21.69-7.61-33.64,0-7.37,1.23-14.45,3.51-21.05.13-.38.27-.75.41-1.13.08-.23.24-.74.28-.82,1.51-3.29,4.24-10.43,5.04-18.43.65-6.47-.17-11.87-1.3-16.93-.54-2.45-1.92-6.48-2.8-8.35-.15-.27-.3-.54-.45-.8,2.02-2.03,2.42-5.28.86-7.98-1.83-3.16-5.59-4.41-8.4-2.79-.3.17-.99.66-1.3.88-.51-.38-.81-.56-.81-.56-.02-.01-.79-.52-1.47-.88,0,0-.26-.13-.26-.14-2.88-1.28-6.01-1.96-9.37-1.96-1.64,0-3.24.17-4.8.49-3.35.7-6.44,2.11-9.1,4.08-1.39.44-2.88.55-2.88.55l-3.8.18c-1.79.08-3.83-.01-3.83-.01-.89,0-1.62.73-1.62,1.62,0,.08.59,5.31.59,5.32.14,1.31.69,2.54,1.79,3.25l.13.09c.35.23.53.42.6.62.42,1.14,1.27,2.27,1.84,2.62.26.16.67.08.74-.21.72-2.85,2.42.23,5.66-1.53.83-.45,1.28,1.57.93,2.45l-.3.76c-.67,1.7-2.21,2.91-4.02,3.18-1.43.21-2.26.35-2.24.55.17,1.61-.02,3,1.62,3.97.48.26.72.32.72.32,2.51.66,9.83,3.47.52,14.46,0,0-.88.99-1.57,1.97-.2.28-.37.58-.51.89l-.19.4-28-10.48c-.84-.33-1.93-1.25-2.45-1.99l-2.76-4.74c-1.71-2.37-3.21-3.27-6.18-3.51-2.15-.18-3.9-.01-3.9-.01-.83.04-1.31.24-1.49.72-.19.53-.21,1.85.61,3.51l2.4,4.41c.21.31,3.24,7.09,3.24,7.09.3.84.82,1.57,1.5,2.14.06.05,28.74,21.72,28.74,21.72l-30.29,15.11c-.87.47-1.9.58-2.85.29-1.11-.34-2.7-.82-2.71-.82-4.96-2.21-8.69-.67-10.87,1.16-.02.02-.86.81-.86.81-.83.82-.52,1.94.42,2.4,0,0,4.78,2.81,5.83,3.53l7.44,4.41c1.15.67,2.52.89,3.83.62l29.41-5.93c.71,11.26,3.55,20.62,3.55,20.62-5.3,5.1-12.61,14.83-15.01,28.19-1.43,7.94-.96,15.14,1.2,23.59-4.11.23-8.07.83-11.36,3.12-3.13,2.18-3.77,6.06-3.79,8l22.96.05h1.94c2.42-.04,3.04-2.44,3.04-2.44.24-.73.31-1.68.42-2.38.73-4.59,1.31-9.37,5.4-17.61,3.3-6.66,9.14-12.65,9.15-12.65.01.02,9.66,14.31,25.98,24.11-3.13.2-7.17,1.23-9.57,2.56-3.8,2.11-4.85,6.45-4.76,8.47h23.79c1.64,0,3-1.06,3.49-2.5.05-.15.09-.3.12-.46.02-.11.04-.23.05-.34.02-.24.03-.5,0-.75Z" style="fill:#020a0a;"/></g><g id="uuid-438b06aa-2bfa-46b7-b645-a68ed8a996c9"><path d="M70.28,85.28c-.1-.3,0-.5.3-.65l2.55-1.05c.3-.15.55,0,.65.3,1.05,3.6,4,5.7,7.8,5.7,4.9,0,7.4-2.8,7.4-6.45,0-3.9-2.6-6.1-6.45-6.85l-2.55-.5c-5.2-1-8.65-4.3-8.65-9.6s4.3-9.7,10.5-9.7c5.05,0,8.85,2.8,10.5,7.2.1.3,0,.5-.3.65l-2.6,1.1c-.3.15-.55,0-.65-.3-1.2-3.1-3.85-5.05-6.95-5.05-4.2,0-6.6,2.6-6.6,6.05,0,3.1,1.8,5.25,5.55,5.95l2.55.5c5,1,9.55,4.1,9.55,10.3,0,5.8-4.3,10.3-11.35,10.3-5.25,0-9.55-2.95-11.25-7.9Z" style="fill:#1d1d1b;"/><path d="M97.58,80.73c0-7.35,4.9-12.1,11.3-12.1s11.2,4.85,11.2,11.55c0,.35,0,.75-.05,1.15-.05.25-.2.4-.5.4h-17.65c-.35,0-.55.15-.45.65.55,4.35,3.5,7.2,7.95,7.2,2.75,0,4.95-1.25,6.55-2.9.35-.35.6-.45.85-.2l1.65,1.8c.2.2.2.45,0,.65-2.35,2.45-5.5,3.95-9.05,3.95-6.9,0-11.8-4.8-11.8-12.15ZM116.18,78.23c-.65-3.75-3.45-6.3-7.3-6.3s-6.75,2.65-7.35,6.35c-.1.4,0,.55.45.55h13.75c.4,0,.55-.15.45-.6Z" style="fill:#1d1d1b;"/><path d="M128.98,92.33h-2.65c-.3,0-.5-.2-.5-.5v-22.2c0-.3.2-.5.5-.5h2.4c.3,0,.5.2.5.5v1.65c0,.25.2.35.4.1,1.5-1.7,3.35-2.75,6.05-2.75,5.15,0,7.8,3.4,7.8,7.65v15.55c0,.3-.2.5-.5.5h-2.65c-.3,0-.5-.2-.5-.5v-14.95c0-3.25-1.75-5-4.85-5-2.2,0-4.05,1.2-5.25,3.3-.2.4-.25.65-.25,1.05v15.6c0,.3-.2.5-.5.5Z" style="fill:#1d1d1b;"/><path d="M149.18,80.73c0-7.25,4.95-12.1,11.4-12.1,3.3,0,5.85,1.1,7.55,3.1.15.15.3.05.3-.15v-1.95c0-.3.2-.5.5-.5h2.45c.3,0,.5.2.5.5v22.2c0,.3-.2.5-.5.5h-2.45c-.3,0-.5-.2-.5-.5v-1.95c0-.2-.15-.3-.3-.15-1.85,1.85-4.25,3.1-7.55,3.1-6.45,0-11.4-4.85-11.4-12.1ZM168.03,85.83c.15-.3.2-.5.2-.9v-8.4c0-.4-.05-.6-.2-.9-1.25-2.2-3.75-3.7-6.9-3.7-4.95,0-8.25,3.55-8.25,8.8s3.3,8.8,8.25,8.8c3.15,0,5.75-1.45,6.9-3.7Z" style="fill:#1d1d1b;"/><path d="M181.03,60.08l2.7-1.45c.35-.15.6,0,.6.35v9.9c0,.15.1.25.25.25h2.75c.3,0,.5.2.5.5v2.15c0,.3-.2.5-.5.5h-2.75c-.15,0-.25.1-.25.25v19.3c0,.3-.2.5-.5.5h-2.65c-.3,0-.5-.2-.5-.5v-19.3c0-.15-.1-.25-.25-.25h-2.75c-.3,0-.5-.2-.5-.5v-2.15c0-.3.2-.5.5-.5h2.75c.15,0,.25-.1.25-.25v-8.2c0-.25.1-.5.35-.6Z" style="fill:#1d1d1b;"/><path d="M191.28,87.38c-.1-.3,0-.5.3-.6l2.4-.85c.3-.1.55.05.65.35.65,2.25,2.6,3.4,4.45,3.4,2.9,0,4.3-1.6,4.3-3.65,0-2.3-1.7-3.3-4.05-3.75l-2-.4c-3.4-.65-5.55-3.25-5.55-6.55,0-3.75,3.1-6.7,7.5-6.7,3.6,0,6.35,1.95,7.35,5.5.1.35-.05.55-.35.65l-2.35.6c-.3.1-.55-.05-.6-.35-.5-1.95-1.9-3.2-4.05-3.2-2.35,0-3.9,1.4-3.9,3.35,0,2.05,1.2,3,3.4,3.45l1.95.4c3.55.7,6.25,2.95,6.25,7s-2.95,6.85-7.9,6.85c-4.1,0-6.75-2.3-7.8-5.5Z" style="fill:#1d1d1b;"/><path d="M226.83,69.13h2.8c.35,0,.5.2.4.55l-7.35,22.25c-.1.25-.35.4-.65.4h-3.85c-.3,0-.55-.15-.65-.4l-7.35-22.25c-.1-.35.05-.55.4-.55h2.8c.25,0,.5.15.6.4l5.95,18.45c.05.2.3.2.35,0l5.95-18.45c.1-.25.35-.4.6-.4Z" style="fill:#1d1d1b;"/><path d="M233.23,80.73c0-7.35,4.9-12.1,11.3-12.1s11.2,4.85,11.2,11.55c0,.35,0,.75-.05,1.15-.05.25-.2.4-.5.4h-17.65c-.35,0-.55.15-.45.65.55,4.35,3.5,7.2,7.95,7.2,2.75,0,4.95-1.25,6.55-2.9.35-.35.6-.45.85-.2l1.65,1.8c.2.2.2.45,0,.65-2.35,2.45-5.5,3.95-9.05,3.95-6.9,0-11.8-4.8-11.8-12.15ZM251.83,78.23c-.65-3.75-3.45-6.3-7.3-6.3s-6.75,2.65-7.35,6.35c-.1.4,0,.55.45.55h13.75c.4,0,.55-.15.45-.6Z" style="fill:#1d1d1b;"/><path d="M272.28,68.68c.3,0,.45.2.45.5v2.65c0,.35-.2.5-.55.4-.4-.05-.85-.1-1.2-.1-2.6,0-4.35,1.25-5.5,2.95-.3.45-.35.8-.35,1.25v15.5c0,.3-.2.5-.5.5h-2.65c-.3,0-.5-.2-.5-.5v-22.2c0-.3.2-.5.5-.5h2.4c.3,0,.5.2.5.5v1.8c0,.25.15.35.35.15,1.3-1.55,3.35-2.95,6.3-2.95.25,0,.5,0,.75.05Z" style="fill:#1d1d1b;"/><path d="M301.13,69.13h2.7c.35,0,.55.2.45.55l-5.6,22.2c-.05.3-.25.45-.55.45h-3.5c-.35,0-.55-.2-.65-.55l-4.1-15.95c-.05-.2-.3-.2-.35,0l-4.1,15.95c-.1.35-.3.55-.65.55h-3.5c-.3,0-.5-.15-.55-.45l-5.6-22.2c-.1-.35.1-.55.45-.55h2.7c.35,0,.55.15.6.45l4.15,17.55c.05.25.25.25.3,0l4.5-17.55c.1-.3.25-.45.55-.45h2.65c.3,0,.45.15.55.45l4.5,17.55c.05.25.25.25.3,0l4.15-17.55c.05-.3.25-.45.6-.45Z" style="fill:#1d1d1b;"/><path d="M308.03,80.73c0-7.25,4.95-12.1,11.4-12.1,3.3,0,5.85,1.1,7.55,3.1.15.15.3.05.3-.15v-1.95c0-.3.2-.5.5-.5h2.45c.3,0,.5.2.5.5v22.2c0,.3-.2.5-.5.5h-2.45c-.3,0-.5-.2-.5-.5v-1.95c0-.2-.15-.3-.3-.15-1.85,1.85-4.25,3.1-7.55,3.1-6.45,0-11.4-4.85-11.4-12.1ZM326.88,85.83c.15-.3.2-.5.2-.9v-8.4c0-.4-.05-.6-.2-.9-1.25-2.2-3.75-3.7-6.9-3.7-4.95,0-8.25,3.55-8.25,8.8s3.3,8.8,8.25,8.8c3.15,0,5.75-1.45,6.9-3.7Z" style="fill:#1d1d1b;"/><path d="M344.58,89.78v2.25c0,.3-.2.5-.5.5h-.9c-3.05,0-4.95-1.4-4.95-4.6v-31.3c0-.3.2-.5.5-.5h2.65c.3,0,.5.2.5.5v30.85c0,1.1.4,1.8,1.5,1.8h.7c.3,0,.5.2.5.5Z" style="fill:#1d1d1b;"/><path d="M351.68,60.08l2.7-1.45c.35-.15.6,0,.6.35v9.9c0,.15.1.25.25.25h2.75c.3,0,.5.2.5.5v2.15c0,.3-.2.5-.5.5h-2.75c-.15,0-.25.1-.25.25v19.3c0,.3-.2.5-.5.5h-2.65c-.3,0-.5-.2-.5-.5v-19.3c0-.15-.1-.25-.25-.25h-2.75c-.3,0-.5-.2-.5-.5v-2.15c0-.3.2-.5.5-.5h2.75c.15,0,.25-.1.25-.25v-8.2c0-.25.1-.5.35-.6Z" style="fill:#1d1d1b;"/><path d="M377.98,69.13h2.65c.3,0,.5.2.5.5v22.2c0,.3-.2.5-.5.5h-2.4c-.3,0-.5-.2-.5-.5v-1.65c0-.25-.2-.35-.45-.1-1.45,1.7-3.3,2.75-6.05,2.75-5.1,0-7.75-3.4-7.75-7.65v-15.55c0-.3.2-.5.5-.5h2.65c.3,0,.5.2.5.5v14.95c0,3.25,1.75,5,4.85,5,2.2,0,4.05-1.2,5.25-3.3.2-.4.25-.65.25-1.05v-15.6c0-.3.2-.5.5-.5Z" style="fill:#1d1d1b;"/><path d="M391.88,92.33h-2.65c-.3,0-.5-.2-.5-.5v-22.2c0-.3.2-.5.5-.5h2.4c.3,0,.5.2.5.5v1.65c0,.25.2.35.4.1,1.5-1.7,3.35-2.75,6.05-2.75,5.15,0,7.8,3.4,7.8,7.65v15.55c0,.3-.2.5-.5.5h-2.65c-.3,0-.5-.2-.5-.5v-14.95c0-3.25-1.75-5-4.85-5-2.2,0-4.05,1.2-5.25,3.3-.2.4-.25.65-.25,1.05v15.6c0,.3-.2.5-.5.5Z" style="fill:#1d1d1b;"/><path d="M414.33,98.83c-.2-.25-.2-.5,0-.7l1.7-1.85c.2-.25.45-.25.7,0,1.45,1.75,3.65,3,6.75,3,4.6,0,7.45-2.05,7.45-6.55v-3.45c0-.25-.25-.35-.5-.1-1.7,1.65-4.1,2.65-7.2,2.65-6.25,0-11.1-4.65-11.1-11.65s4.95-11.55,11.3-11.55c3.1,0,5.55,1,7.25,2.8.25.25.45.15.45-.15v-1.65c0-.3.25-.5.5-.5h2.45c.3,0,.5.2.5.5v23.4c0,6.2-4.65,9.6-11.1,9.6-4.1,0-7.15-1.55-9.15-3.8ZM430.73,84.98c.2-.3.25-.55.25-.9v-7.75c0-.35-.05-.6-.25-.9-1.3-2.05-3.65-3.5-6.8-3.5-4.8,0-8.05,3.4-8.05,8.25s3.25,8.3,8.05,8.3c3.15,0,5.5-1.45,6.8-3.5Z" style="fill:#1d1d1b;"/><path d="M72.68,156.53v-19.3c0-.15-.1-.25-.25-.25h-2c-.3,0-.5-.2-.5-.45v-2.2c0-.3.2-.5.5-.5h2c.15,0,.25-.1.25-.25v-7.4c0-3.6,1.85-5.9,5.4-5.9,1,0,1.95.3,2.75.65.3.15.45.3.35.6l-.7,2.35c-.1.35-.35.35-.65.2-.5-.25-1-.4-1.45-.4-1.25,0-2.05.9-2.05,2.7v7.2c0,.15.1.25.25.25h3.1c.3,0,.5.2.5.5v2.2c0,.25-.2.45-.5.45h-3.1c-.15,0-.25.1-.25.25v19.3c0,.3-.2.5-.45.5h-2.7c-.3,0-.5-.2-.5-.5Z" style="fill:#1d1d1b;"/><path d="M99.43,133.83h2.65c.3,0,.5.2.5.5v22.2c0,.3-.2.5-.5.5h-2.4c-.3,0-.5-.2-.5-.5v-1.65c0-.25-.2-.35-.45-.1-1.45,1.7-3.3,2.75-6.05,2.75-5.1,0-7.75-3.4-7.75-7.65v-15.55c0-.3.2-.5.5-.5h2.65c.3,0,.5.2.5.5v14.95c0,3.25,1.75,5,4.85,5,2.2,0,4.05-1.2,5.25-3.3.2-.4.25-.65.25-1.05v-15.6c0-.3.2-.5.5-.5ZM86.18,125.68c0-1.45,1.2-2.7,2.7-2.7s2.7,1.25,2.7,2.7-1.25,2.75-2.7,2.75-2.7-1.3-2.7-2.75ZM96.03,125.68c0-1.45,1.2-2.7,2.7-2.7s2.7,1.25,2.7,2.7-1.25,2.75-2.7,2.75-2.7-1.3-2.7-2.75Z" style="fill:#1d1d1b;"/><path d="M120.98,133.38c.3,0,.45.2.45.5v2.65c0,.35-.2.5-.55.4-.4-.05-.85-.1-1.2-.1-2.6,0-4.35,1.25-5.5,2.95-.3.45-.35.8-.35,1.25v15.5c0,.3-.2.5-.5.5h-2.65c-.3,0-.5-.2-.5-.5v-22.2c0-.3.2-.5.5-.5h2.4c.3,0,.5.2.5.5v1.8c0,.25.15.35.35.15,1.3-1.55,3.35-2.95,6.3-2.95.25,0,.5,0,.75.05Z" style="fill:#1d1d1b;"/><path d="M136.08,149.98c-.1-.3,0-.5.3-.65l2.55-1.05c.3-.15.55,0,.65.3,1.05,3.6,4,5.7,7.8,5.7,4.9,0,7.4-2.8,7.4-6.45,0-3.9-2.6-6.1-6.45-6.85l-2.55-.5c-5.2-1-8.65-4.3-8.65-9.6s4.3-9.7,10.5-9.7c5.05,0,8.85,2.8,10.5,7.2.1.3,0,.5-.3.65l-2.6,1.1c-.3.15-.55,0-.65-.3-1.2-3.1-3.85-5.05-6.95-5.05-4.2,0-6.6,2.6-6.6,6.05,0,3.1,1.8,5.25,5.55,5.95l2.55.5c5,1,9.55,4.1,9.55,10.3,0,5.8-4.3,10.3-11.35,10.3-5.25,0-9.55-2.95-11.25-7.9Z" style="fill:#1d1d1b;"/><path d="M165.93,124.78l2.7-1.45c.35-.15.6,0,.6.35v9.9c0,.15.1.25.25.25h2.75c.3,0,.5.2.5.5v2.15c0,.3-.2.5-.5.5h-2.75c-.15,0-.25.1-.25.25v19.3c0,.3-.2.5-.5.5h-2.65c-.3,0-.5-.2-.5-.5v-19.3c0-.15-.1-.25-.25-.25h-2.75c-.3,0-.5-.2-.5-.5v-2.15c0-.3.2-.5.5-.5h2.75c.15,0,.25-.1.25-.25v-8.2c0-.25.1-.5.35-.6Z" style="fill:#1d1d1b;"/><path d="M176.08,145.43c0-7.25,4.95-12.1,11.4-12.1,3.3,0,5.85,1.1,7.55,3.1.15.15.3.05.3-.15v-1.95c0-.3.2-.5.5-.5h2.45c.3,0,.5.2.5.5v22.2c0,.3-.2.5-.5.5h-2.45c-.3,0-.5-.2-.5-.5v-1.95c0-.2-.15-.3-.3-.15-1.85,1.85-4.25,3.1-7.55,3.1-6.45,0-11.4-4.85-11.4-12.1ZM194.93,150.53c.15-.3.2-.5.2-.9v-8.4c0-.4-.05-.6-.2-.9-1.25-2.2-3.75-3.7-6.9-3.7-4.95,0-8.25,3.55-8.25,8.8s3.3,8.8,8.25,8.8c3.15,0,5.75-1.45,6.9-3.7Z" style="fill:#1d1d1b;"/><path d="M224.33,120.83h2.65c.3,0,.5.2.5.5v35.2c0,.3-.2.5-.5.5h-2.45c-.3,0-.5-.2-.5-.5v-1.75c0-.35-.2-.4-.45-.1-1.65,1.85-4.15,2.85-7.4,2.85-6.45,0-11.4-4.85-11.4-12.1s4.95-12.1,11.4-12.1c3.1,0,5.5,1,7.2,2.65.3.3.45.15.45-.15v-14.5c0-.3.2-.5.5-.5ZM223.63,150.53c.15-.3.2-.5.2-.8v-8.6c0-.3-.05-.5-.2-.8-1.3-2.2-3.75-3.7-6.9-3.7-4.95,0-8.25,3.55-8.25,8.8s3.3,8.8,8.25,8.8c3.15,0,5.6-1.5,6.9-3.7Z" style="fill:#1d1d1b;"/><path d="M236.58,124.78l2.7-1.45c.35-.15.6,0,.6.35v9.9c0,.15.1.25.25.25h2.75c.3,0,.5.2.5.5v2.15c0,.3-.2.5-.5.5h-2.75c-.15,0-.25.1-.25.25v19.3c0,.3-.2.5-.5.5h-2.65c-.3,0-.5-.2-.5-.5v-19.3c0-.15-.1-.25-.25-.25h-2.75c-.3,0-.5-.2-.5-.5v-2.15c0-.3.2-.5.5-.5h2.75c.15,0,.25-.1.25-.25v-8.2c0-.25.1-.5.35-.6Z" style="fill:#1d1d1b;"/><path d="M246.73,145.43c0-7.35,4.9-12.1,11.3-12.1s11.2,4.85,11.2,11.55c0,.35,0,.75-.05,1.15-.05.25-.2.4-.5.4h-17.65c-.35,0-.55.15-.45.65.55,4.35,3.5,7.2,7.95,7.2,2.75,0,4.95-1.25,6.55-2.9.35-.35.6-.45.85-.2l1.65,1.8c.2.2.2.45,0,.65-2.35,2.45-5.5,3.95-9.05,3.95-6.9,0-11.8-4.8-11.8-12.15ZM265.33,142.93c-.65-3.75-3.45-6.3-7.3-6.3s-6.75,2.65-7.35,6.35c-.1.4,0,.55.45.55h13.75c.4,0,.55-.15.45-.6Z" style="fill:#1d1d1b;"/><path d="M278.13,157.03h-2.65c-.3,0-.5-.2-.5-.5v-22.2c0-.3.2-.5.5-.5h2.4c.3,0,.5.2.5.5v1.65c0,.25.2.35.4.1,1.5-1.7,3.35-2.75,6.05-2.75,5.15,0,7.8,3.4,7.8,7.65v15.55c0,.3-.2.5-.5.5h-2.65c-.3,0-.5-.2-.5-.5v-14.95c0-3.25-1.75-5-4.85-5-2.2,0-4.05,1.2-5.25,3.3-.2.4-.25.65-.25,1.05v15.6c0,.3-.2.5-.5.5Z" style="fill:#1d1d1b;"/><path d="M301.28,124.78l2.7-1.45c.35-.15.6,0,.6.35v9.9c0,.15.1.25.25.25h2.75c.3,0,.5.2.5.5v2.15c0,.3-.2.5-.5.5h-2.75c-.15,0-.25.1-.25.25v19.3c0,.3-.2.5-.5.5h-2.65c-.3,0-.5-.2-.5-.5v-19.3c0-.15-.1-.25-.25-.25h-2.75c-.3,0-.5-.2-.5-.5v-2.15c0-.3.2-.5.5-.5h2.75c.15,0,.25-.1.25-.25v-8.2c0-.25.1-.5.35-.6Z" style="fill:#1d1d1b;"/><path d="M337.13,133.83h2.7c.35,0,.55.2.45.55l-5.6,22.2c-.05.3-.25.45-.55.45h-3.5c-.35,0-.55-.2-.65-.55l-4.1-15.95c-.05-.2-.3-.2-.35,0l-4.1,15.95c-.1.35-.3.55-.65.55h-3.5c-.3,0-.5-.15-.55-.45l-5.6-22.2c-.1-.35.1-.55.45-.55h2.7c.35,0,.55.15.6.45l4.15,17.55c.05.25.25.25.3,0l4.5-17.55c.1-.3.25-.45.55-.45h2.65c.3,0,.45.15.55.45l4.5,17.55c.05.25.25.25.3,0l4.15-17.55c.05-.3.25-.45.6-.45Z" style="fill:#1d1d1b;"/><path d="M344.83,125.68c0-1.45,1.25-2.7,2.75-2.7,1.4,0,2.65,1.25,2.65,2.7s-1.25,2.75-2.65,2.75c-1.5,0-2.75-1.3-2.75-2.75ZM345.68,156.53v-22.2c0-.3.2-.5.5-.5h2.65c.3,0,.5.2.5.5v22.2c0,.3-.2.5-.5.5h-2.65c-.3,0-.5-.2-.5-.5Z" style="fill:#1d1d1b;"/><path d="M366.88,133.33c3.95,0,7.45,1.75,9.35,4.9.15.3.05.55-.2.7l-2.15,1.2c-.25.15-.5.1-.7-.2-1.25-2.05-3.55-3.25-6.3-3.25-4.8,0-7.9,3.55-7.9,8.75s3.1,8.75,7.9,8.75c2.75,0,4.95-1.25,6.3-3.25.2-.3.45-.35.7-.2l2.15,1.2c.25.15.35.4.2.7-1.65,3.3-5.4,4.9-9.35,4.9-6.75,0-11.6-4.85-11.6-12.1s4.85-12.1,11.6-12.1Z" style="fill:#1d1d1b;"/><path d="M394.53,156.58l-5.95-10c-.15-.3-.4-.35-.6-.1l-2.1,2.5c-.25.35-.3.5-.3.9v6.65c0,.3-.25.5-.55.5h-2.6c-.3,0-.5-.2-.5-.5v-35.2c0-.3.2-.5.5-.5h2.6c.3,0,.55.2.55.5v22.15c0,.4.25.45.5.1l7.8-9.45c.15-.2.35-.3.6-.3h3.45c.4,0,.6.3.3.65l-7,8.4c-.25.3-.3.5-.1.85l7.55,12.7c.2.35.05.6-.35.6h-3.05c-.35,0-.6-.15-.75-.45Z" style="fill:#1d1d1b;"/><path d="M409.83,154.48v2.25c0,.3-.2.5-.5.5h-.9c-3.05,0-4.95-1.4-4.95-4.6v-31.3c0-.3.2-.5.5-.5h2.65c.3,0,.5.2.5.5v30.85c0,1.1.4,1.8,1.5,1.8h.7c.3,0,.5.2.5.5Z" style="fill:#1d1d1b;"/><path d="M429.73,133.83h2.65c.3,0,.5.2.5.5v22.2c0,.3-.2.5-.5.5h-2.4c-.3,0-.5-.2-.5-.5v-1.65c0-.25-.2-.35-.45-.1-1.45,1.7-3.3,2.75-6.05,2.75-5.1,0-7.75-3.4-7.75-7.65v-15.55c0-.3.2-.5.5-.5h2.65c.3,0,.5.2.5.5v14.95c0,3.25,1.75,5,4.85,5,2.2,0,4.05-1.2,5.25-3.3.2-.4.25-.65.25-1.05v-15.6c0-.3.2-.5.5-.5Z" style="fill:#1d1d1b;"/><path d="M443.63,157.03h-2.65c-.3,0-.5-.2-.5-.5v-22.2c0-.3.2-.5.5-.5h2.4c.3,0,.5.2.5.5v1.65c0,.25.2.35.4.1,1.5-1.7,3.35-2.75,6.05-2.75,5.15,0,7.8,3.4,7.8,7.65v15.55c0,.3-.2.5-.5.5h-2.65c-.3,0-.5-.2-.5-.5v-14.95c0-3.25-1.75-5-4.85-5-2.2,0-4.05,1.2-5.25,3.3-.2.4-.25.65-.25,1.05v15.6c0,.3-.2.5-.5.5Z" style="fill:#1d1d1b;"/><path d="M466.08,163.53c-.2-.25-.2-.5,0-.7l1.7-1.85c.2-.25.45-.25.7,0,1.45,1.75,3.65,3,6.75,3,4.6,0,7.45-2.05,7.45-6.55v-3.45c0-.25-.25-.35-.5-.1-1.7,1.65-4.1,2.65-7.2,2.65-6.25,0-11.1-4.65-11.1-11.65s4.95-11.55,11.3-11.55c3.1,0,5.55,1,7.25,2.8.25.25.45.15.45-.15v-1.65c0-.3.25-.5.5-.5h2.45c.3,0,.5.2.5.5v23.4c0,6.2-4.65,9.6-11.1,9.6-4.1,0-7.15-1.55-9.15-3.8ZM482.48,149.68c.2-.3.25-.55.25-.9v-7.75c0-.35-.05-.6-.25-.9-1.3-2.05-3.65-3.5-6.8-3.5-4.8,0-8.05,3.4-8.05,8.25s3.25,8.3,8.05,8.3c3.15,0,5.5-1.45,6.8-3.5Z" style="fill:#1d1d1b;"/><path d="M499.68,154.68c0,2.05-.85,3.55-1.75,5.1l-3.75,6.45c-.15.3-.4.4-.7.2l-1.7-1.1c-.3-.2-.3-.4-.15-.65l3.85-6.6c.2-.35.15-.5-.2-.65-1.25-.4-2.1-1.6-2.1-3.05,0-1.75,1.45-3.2,3.25-3.2s3.25,1.3,3.25,3.5Z" style="fill:#1d1d1b;"/><path d="M93.48,195.98c0,3.25-1.75,6-4.25,7.45-.35.2-.3.4,0,.55,3,1.5,5,4.5,5,8.15,0,5.4-3.65,9.6-10.7,9.6h-10.1c-.3,0-.5-.2-.5-.5v-34c0-.3.2-.5.5-.5h10c6.5,0,10.05,4.05,10.05,9.25ZM76.63,190.53v11.35c0,.15.1.25.25.25h6.1c4.4,0,6.65-2.25,6.65-5.9s-2.25-5.95-6.65-5.95h-6.1c-.15,0-.25.1-.25.25ZM76.63,205.93v12c0,.15.1.25.25.25h6.3c4.8,0,7.2-2.4,7.2-6.25s-2.4-6.25-7.2-6.25h-6.3c-.15,0-.25.1-.25.25Z" style="fill:#1d1d1b;"/><path d="M99.43,210.13c0-7.25,4.95-12.1,11.4-12.1,3.3,0,5.85,1.1,7.55,3.1.15.15.3.05.3-.15v-1.95c0-.3.2-.5.5-.5h2.45c.3,0,.5.2.5.5v22.2c0,.3-.2.5-.5.5h-2.45c-.3,0-.5-.2-.5-.5v-1.95c0-.2-.15-.3-.3-.15-1.85,1.85-4.25,3.1-7.55,3.1-6.45,0-11.4-4.85-11.4-12.1ZM118.28,215.23c.15-.3.2-.5.2-.9v-8.4c0-.4-.05-.6-.2-.9-1.25-2.2-3.75-3.7-6.9-3.7-4.95,0-8.25,3.55-8.25,8.8s3.3,8.8,8.25,8.8c3.15,0,5.75-1.45,6.9-3.7Z" style="fill:#1d1d1b;"/><path d="M143.98,198.53h2.65c.3,0,.5.2.5.5v22.2c0,.3-.2.5-.5.5h-2.4c-.3,0-.5-.2-.5-.5v-1.65c0-.25-.2-.35-.45-.1-1.45,1.7-3.3,2.75-6.05,2.75-5.1,0-7.75-3.4-7.75-7.65v-15.55c0-.3.2-.5.5-.5h2.65c.3,0,.5.2.5.5v14.95c0,3.25,1.75,5,4.85,5,2.2,0,4.05-1.2,5.25-3.3.2-.4.25-.65.25-1.05v-15.6c0-.3.2-.5.5-.5Z" style="fill:#1d1d1b;"/><path d="M153.08,210.13c0-7.35,4.9-12.1,11.3-12.1s11.2,4.85,11.2,11.55c0,.35,0,.75-.05,1.15-.05.25-.2.4-.5.4h-17.65c-.35,0-.55.15-.45.65.55,4.35,3.5,7.2,7.95,7.2,2.75,0,4.95-1.25,6.55-2.9.35-.35.6-.45.85-.2l1.65,1.8c.2.2.2.45,0,.65-2.35,2.45-5.5,3.95-9.05,3.95-6.9,0-11.8-4.8-11.8-12.15ZM171.68,207.63c-.65-3.75-3.45-6.3-7.3-6.3s-6.75,2.65-7.35,6.35c-.1.4,0,.55.45.55h13.75c.4,0,.55-.15.45-.6Z" style="fill:#1d1d1b;"/><path d="M184.48,221.73h-2.65c-.3,0-.5-.2-.5-.5v-22.2c0-.3.2-.5.5-.5h2.4c.3,0,.5.2.5.5v1.65c0,.25.2.35.4.1,1.5-1.7,3.35-2.75,6.05-2.75,5.15,0,7.8,3.4,7.8,7.65v15.55c0,.3-.2.5-.5.5h-2.65c-.3,0-.5-.2-.5-.5v-14.95c0-3.25-1.75-5-4.85-5-2.2,0-4.05,1.2-5.25,3.3-.2.4-.25.65-.25,1.05v15.6c0,.3-.2.5-.5.5Z" style="fill:#1d1d1b;"/><path d="M233.33,198.53h2.65c.3,0,.5.2.5.5v22.2c0,.3-.2.5-.5.5h-2.4c-.3,0-.5-.2-.5-.5v-1.65c0-.25-.2-.35-.45-.1-1.45,1.7-3.3,2.75-6.05,2.75-5.1,0-7.75-3.4-7.75-7.65v-15.55c0-.3.2-.5.5-.5h2.65c.3,0,.5.2.5.5v14.95c0,3.25,1.75,5,4.85,5,2.2,0,4.05-1.2,5.25-3.3.2-.4.25-.65.25-1.05v-15.6c0-.3.2-.5.5-.5Z" style="fill:#1d1d1b;"/><path d="M247.23,221.73h-2.65c-.3,0-.5-.2-.5-.5v-22.2c0-.3.2-.5.5-.5h2.4c.3,0,.5.2.5.5v1.65c0,.25.2.35.4.1,1.5-1.7,3.35-2.75,6.05-2.75,5.15,0,7.8,3.4,7.8,7.65v15.55c0,.3-.2.5-.5.5h-2.65c-.3,0-.5-.2-.5-.5v-14.95c0-3.25-1.75-5-4.85-5-2.2,0-4.05,1.2-5.25,3.3-.2.4-.25.65-.25,1.05v15.6c0,.3-.2.5-.5.5Z" style="fill:#1d1d1b;"/><path d="M286.98,185.53h2.65c.3,0,.5.2.5.5v35.2c0,.3-.2.5-.5.5h-2.45c-.3,0-.5-.2-.5-.5v-1.75c0-.35-.2-.4-.45-.1-1.65,1.85-4.15,2.85-7.4,2.85-6.45,0-11.4-4.85-11.4-12.1s4.95-12.1,11.4-12.1c3.1,0,5.5,1,7.2,2.65.3.3.45.15.45-.15v-14.5c0-.3.2-.5.5-.5ZM286.28,215.23c.15-.3.2-.5.2-.8v-8.6c0-.3-.05-.5-.2-.8-1.3-2.2-3.75-3.7-6.9-3.7-4.95,0-8.25,3.55-8.25,8.8s3.3,8.8,8.25,8.8c3.15,0,5.6-1.5,6.9-3.7Z" style="fill:#1d1d1b;"/><path d="M315.48,221.28l-7.9-34c-.1-.35.05-.55.45-.55h2.85c.3,0,.5.2.55.45l6.45,28.4c.05.25.25.25.3,0l6.55-28.4c.05-.25.3-.45.6-.45h2.65c.3,0,.55.2.6.45l6.55,28.4c.05.25.25.25.3,0l6.45-28.4c.05-.25.25-.45.55-.45h2.85c.4,0,.55.2.45.55l-7.9,34c-.05.3-.25.45-.6.45h-3.6c-.3,0-.55-.2-.6-.45l-6.2-26.75c-.05-.25-.3-.25-.35,0l-6.2,26.75c-.05.25-.3.45-.6.45h-3.6c-.35,0-.55-.15-.6-.45Z" style="fill:#1d1d1b;"/><path d="M347.68,210.13c0-6.65,4.95-12.1,11.7-12.1s11.7,5.45,11.7,12.1-4.95,12.1-11.7,12.1-11.7-5.45-11.7-12.1ZM367.38,210.13c0-4.8-3.25-8.75-8-8.75s-8,3.95-8,8.75,3.25,8.75,8,8.75,8-3.95,8-8.75Z" style="fill:#1d1d1b;"/><path d="M380.18,221.73h-2.65c-.3,0-.5-.2-.5-.5v-35.2c0-.3.2-.5.5-.5h2.65c.3,0,.5.2.5.5v14.4c0,.3.15.35.35.1,1.35-1.5,3.35-2.5,5.85-2.5,5.15,0,7.8,3.4,7.8,7.65v15.55c0,.3-.2.5-.5.5h-2.65c-.3,0-.5-.2-.5-.5v-14.95c0-3.25-1.75-5-4.85-5-2.2,0-4.1,1.15-5.25,3.3-.2.4-.25.65-.25,1.05v15.6c0,.3-.2.5-.5.5Z" style="fill:#1d1d1b;"/><path d="M405.18,221.73h-2.65c-.3,0-.5-.2-.5-.5v-22.2c0-.3.2-.5.5-.5h2.4c.3,0,.5.2.5.5v1.65c0,.25.2.35.4.1,1.5-1.7,3.35-2.75,6.05-2.75,5.15,0,7.8,3.4,7.8,7.65v15.55c0,.3-.2.5-.5.5h-2.65c-.3,0-.5-.2-.5-.5v-14.95c0-3.25-1.75-5-4.85-5-2.2,0-4.05,1.2-5.25,3.3-.2.4-.25.65-.25,1.05v15.6c0,.3-.2.5-.5.5Z" style="fill:#1d1d1b;"/><path d="M425.38,210.13c0-7.35,4.9-12.1,11.3-12.1s11.2,4.85,11.2,11.55c0,.35,0,.75-.05,1.15-.05.25-.2.4-.5.4h-17.65c-.35,0-.55.15-.45.65.55,4.35,3.5,7.2,7.95,7.2,2.75,0,4.95-1.25,6.55-2.9.35-.35.6-.45.85-.2l1.65,1.8c.2.2.2.45,0,.65-2.35,2.45-5.5,3.95-9.05,3.95-6.9,0-11.8-4.8-11.8-12.15ZM443.98,207.63c-.65-3.75-3.45-6.3-7.3-6.3s-6.75,2.65-7.35,6.35c-.1.4,0,.55.45.55h13.75c.4,0,.55-.15.45-.6Z" style="fill:#1d1d1b;"/><path d="M456.78,221.73h-2.65c-.3,0-.5-.2-.5-.5v-22.2c0-.3.2-.5.5-.5h2.4c.3,0,.5.2.5.5v1.65c0,.25.2.35.4.1,1.5-1.7,3.35-2.75,6.05-2.75,5.15,0,7.8,3.4,7.8,7.65v15.55c0,.3-.2.5-.5.5h-2.65c-.3,0-.5-.2-.5-.5v-14.95c0-3.25-1.75-5-4.85-5-2.2,0-4.05,1.2-5.25,3.3-.2.4-.25.65-.25,1.05v15.6c0,.3-.2.5-.5.5Z" style="fill:#1d1d1b;"/></g></svg>