<?xml version="1.0" encoding="UTF-8" standalone="no"?>
<svg
   width="150"
   height="125"
   viewBox="0 0 150 125"
   fill="none"
   version="1.1"
   id="svg16"
   sodipodi:docname="logo-umweltatlas_beta_schwarz.svg"
   inkscape:version="1.3.2 (091e20e, 2023-11-25, custom)"
   xmlns:inkscape="http://www.inkscape.org/namespaces/inkscape"
   xmlns:sodipodi="http://sodipodi.sourceforge.net/DTD/sodipodi-0.dtd"
   xmlns="http://www.w3.org/2000/svg"
   xmlns:svg="http://www.w3.org/2000/svg">
  <sodipodi:namedview
     id="namedview16"
     pagecolor="#ffffff"
     bordercolor="#666666"
     borderopacity="1.0"
     inkscape:showpageshadow="2"
     inkscape:pageopacity="0.0"
     inkscape:pagecheckerboard="0"
     inkscape:deskcolor="#d1d1d1"
     inkscape:zoom="8.24"
     inkscape:cx="75"
     inkscape:cy="94.720874"
     inkscape:window-width="1920"
     inkscape:window-height="1017"
     inkscape:window-x="-8"
     inkscape:window-y="-8"
     inkscape:window-maximized="1"
     inkscape:current-layer="svg16" />
  <g
     clip-path="url(#clip0_336_16022)"
     id="g16">
    <path
       d="m 74.0966,56.6696 v 2.7263 c -3.0981,0.0284 -6.1962,0.0568 -9.2944,0.0852 v -2.7676 c 3.1575,-0.031 6.4002,-0.0491 9.2944,-0.0439 z"
       fill="#000000"
       id="path1" />
    <path
       d="m 69.0621,69.5782 c 1.8641,-0.8236 3.6481,-1.0766 5.0345,-1.1153 v 14.9277 c 0,2.5663 -2.0809,4.6472 -4.6472,4.6472 -2.5663,0 -4.6472,-2.0809 -4.6472,-4.6472 V 72.5937 c 1.3942,-1.296 2.5379,-2.2539 4.2599,-3.0155 z"
       fill="#000000"
       id="path2" />
    <path
       d="m 84.6815,58.8021 v 2.7212 c -0.6712,-0.3563 -1.4019,-0.6868 -2.1945,-0.9811 -1.4432,-0.5344 -3.7822,-1.1928 -6.8416,-1.1618 -0.0852,0 -0.173,0.0026 -0.2582,0.0026 v -2.6979 c 1.0689,0.0335 2.5353,0.142 4.2599,0.5008 2.0473,0.4234 3.7539,1.0482 5.0344,1.6162 z"
       fill="#000000"
       id="path3" />
    <path
       d="m 84.6815,72.9346 v 10.4561 c 0,2.5662 -2.0809,4.6471 -4.6471,4.6471 -2.5663,0 -4.6472,-2.0809 -4.6472,-4.6471 V 68.4888 c 0.2427,0.0155 0.4596,0.0361 0.6454,0.0568 3.5629,0.4001 5.9432,2.0912 6.9708,2.8399 0.8055,0.5861 1.1489,0.9552 1.6781,1.5491 z"
       fill="#000000"
       id="path4" />
    <path
       d="M 26.4785,49.8278 4.32444,83.1325 H 0 L 22.4613,49.8278 0,16.5232 h 4.24441 z"
       fill="#cccccc"
       id="path5" />
    <path
       d="M 36.1448,49.8278 14.1999,83.1325 H 5.56908 L 27.7205,49.8278 5.48389,16.5232 h 8.09641 z"
       fill="#cccccc"
       id="path6" />
    <path
       d="m 123.521,49.957 22.155,33.3046 H 150 L 127.539,49.957 150,16.6523 h -4.244 z"
       fill="#cccccc"
       id="path7" />
    <path
       d="M 113.855,49.957 135.8,83.2616 h 8.631 L 122.28,49.957 144.516,16.6523 h -8.096 z"
       fill="#cccccc"
       id="path8" />
    <path
       d="m 97.332,50.0861 21.945,33.3047 h 14.052 L 111.178,50.0861 133.415,16.7815 h -13.518 z"
       fill="#000000"
       id="path9" />
    <path
       d="M 52.6676,49.957 30.7227,83.2616 H 16.6702 L 38.8216,49.957 16.585,16.6523 h 13.518 z"
       fill="#000000"
       id="path10" />
    <path
       d="m 74.6126,14.9742 c 4.135,0 7.4871,-3.3521 7.4871,-7.48711 C 82.0997,3.35208 78.7476,0 74.6126,0 c -4.135,0 -7.4871,3.35208 -7.4871,7.48709 0,4.13501 3.3521,7.48711 7.4871,7.48711 z"
       fill="#000000"
       id="path11" />
    <path
       d="m 92.4269,21.4287 v 18.2014 h -1.9363 c 0.0129,-0.8314 -0.0259,-1.9932 -0.2582,-3.3563 -0.8313,-4.8873 -3.426,-8.1248 -4.389,-9.2943 -0.7048,-0.8598 -4.2341,-5.0086 -10.5852,-6.9708 -4.2702,-1.3193 -7.9673,-1.0766 -10.0688,-0.7745 -0.5835,-0.8365 -1.3968,-1.8821 -2.4863,-2.969 h 23.7857 c 0.5629,-0.0362 1.6498,-0.0258 2.84,0.5163 0.3511,0.1601 1.1179,0.519 1.8072,1.2909 1.1411,1.2806 1.2702,2.8038 1.2909,3.3563 z"
       fill="#000000"
       id="path12" />
    <path
       d="m 116.05,80.9381 c -1.133,0.7229 -2.879,1.6756 -5.164,2.3236 -4.311,1.2212 -7.895,0.6093 -9.81,0.2582 -4.2214,-0.772 -7.113,-2.4605 -7.7455,-2.84 C 90.8856,79.2135 89.1506,77.5018 86.8761,75.2582 85.7298,74.1249 85.136,73.4459 84.6816,72.9347 84.1524,72.3409 83.809,71.9717 83.0035,71.3856 81.9759,70.6369 79.5956,68.9459 76.0327,68.5457 75.8469,68.525 75.63,68.5044 75.3873,68.4889 75.0155,68.4631 74.5792,68.4502 74.0964,68.4631 72.71,68.5018 70.926,68.7548 69.062,69.5784 c -1.722,0.7616 -2.8657,1.7194 -4.2599,3.0155 -0.2091,0.191 -0.4234,0.3898 -0.6454,0.5989 -2.2255,2.0861 -3.031,3.4131 -4.1308,4.6472 -3.6429,4.0921 -8.809,5.2745 -10.5852,5.6799 -6.5086,1.4871 -11.9613,-0.4183 -14.4579,-1.2909 -0.71,-0.2479 -1.2883,-0.4802 -1.6781,-0.6455 4.8201,-7.3141 9.6377,-14.6308 14.4578,-21.9449 5.6799,-0.0516 11.3597,-0.1058 17.0396,-0.1575 3.0981,-0.0284 6.1962,-0.0568 9.2943,-0.0852 0.4312,-0.0051 0.8598,-0.0103 1.2909,-0.0129 0.0852,0 0.173,-0.0026 0.2582,-0.0026 3.0594,-0.0309 5.3984,0.6274 6.8416,1.1618 0.7926,0.2944 1.5233,0.6248 2.1945,0.9811 2.0964,1.1024 3.63,2.4139 4.7763,3.4079 1.895,1.6446 1.6962,1.9131 4.389,4.389 2.2177,2.0396 3.3253,3.0594 4.9053,3.8726 1.2367,0.6377 3.5908,1.815 6.7128,1.5491 2.437,-0.2065 4.236,-1.2005 5.163,-1.8072 1.808,2.6669 3.615,5.3365 5.422,8.0034 z"
       fill="#1c509a"
       id="path13" />
    <path
       d="m 92.5558,47.6333 v 2.1945 H 76.9362 c 0.8106,-0.7616 2.6024,-2.654 3.3562,-5.6799 0.9656,-3.87 -0.4053,-7.043 -1.0327,-8.2616 -0.2013,-0.3924 -2.9122,-5.4372 -8.7779,-6.4544 -1.0715,-0.1859 -4.7892,-0.6764 -8.2616,1.5491 -1.2135,0.7771 -2.05,1.6652 -2.5818,2.3236 0.1342,-0.9191 0.5602,-4.5852 -1.8072,-8.0035 -0.2479,-0.3563 -0.5061,-0.6841 -0.7746,-0.9888 v -3.4905 c 0.963,0.7848 1.9105,1.784 2.7109,3.0594 1.1979,1.9079 1.6291,3.7487 1.8072,4.9053 1.1282,-0.7255 3.2969,-1.8899 6.1962,-2.0654 5.5301,-0.3331 9.3305,3.2039 10.327,4.1308 0.852,0.7926 4.8202,4.4871 4.9054,10.327 0.0413,2.9381 -0.9165,5.2255 -1.5491,6.4544 z"
       fill="#000000"
       id="path14" />
    <path
       d="m 101.85,39.63 c -1.807,2.667 -3.6142,5.3365 -5.4215,8.0035 H 81.4544 c 0.6325,-1.2289 1.5903,-3.5164 1.549,-6.4544 -0.0852,-5.8399 -4.0534,-9.5344 -4.9053,-10.327 -0.9966,-0.9269 -4.7969,-4.4639 -10.3271,-4.1308 -2.8993,0.1755 -5.0679,1.3399 -6.1962,2.0654 -0.1781,-1.1567 -0.6093,-2.9974 -1.8072,-4.9054 -0.8003,-1.2754 -1.7478,-2.2745 -2.7108,-3.0593 -2.068,-1.6834 -4.198,-2.3649 -5.0345,-2.6205 -1.1334,-0.346 -4.6497,-1.2703 -8.5198,0 -2.1764,0.7125 -3.8287,1.9105 -4.3889,2.3236 -1.0147,0.7461 -2.2978,1.7452 -2.84,2.3235 -1.549,-2.2384 -3.0981,-4.4742 -4.6471,-6.7125 1.3864,-1.2703 7.1618,-6.2737 15.7487,-6.19625 2.5301,0.02324 7.5413,0.50865 12.3924,3.87265 1.1463,0.7952 2.1196,1.6368 2.9355,2.4527 1.0895,1.0869 1.9027,2.1325 2.4862,2.969 2.1015,-0.3021 5.7986,-0.5448 10.0688,0.7745 2.6567,0.821 4.8228,2.0267 6.4906,3.2117 2.321,1.6472 3.6841,3.2582 4.0946,3.759 0.963,1.1696 3.5577,4.4071 4.389,9.2944 0.2324,1.3631 0.2711,2.5249 0.2582,3.3562 z"
       fill="#b0c8e4"
       id="path15" />
    <path
       d="m 109.467,70.9982 c -1.025,0.5731 -3.215,1.5929 -5.938,1.2909 -2.045,-0.2272 -3.45,-1.0947 -4.7766,-1.9364 -3.2298,-2.0473 -3.2892,-3.5008 -7.2289,-6.9707 -1.371,-1.2083 -2.7625,-2.4191 -4.9054,-3.6145 -0.4492,-0.2478 -1.1024,-0.5938 -1.9363,-0.9655 -1.2806,-0.568 -2.9871,-1.1928 -5.0344,-1.6162 -1.7246,-0.3589 -3.1911,-0.4673 -4.2599,-0.5009 -0.4673,-0.0155 -0.8572,-0.0155 -1.1618,-0.0155 h -0.1291 c -2.8941,-0.0051 -6.1368,0.0129 -9.2943,0.0439 -7.6317,0.0723 -14.778,0.204 -15.3615,0.2143 1.593,-2.4527 3.1833,-4.9053 4.7763,-7.358 -5.5069,-8.0034 -11.0164,-16.0069 -16.5233,-24.0103 0.6868,-0.932 1.9983,-2.4604 4.1309,-3.6145 3.6402,-1.9724 7.1488,-1.4922 8.2616,-1.2909 1.0611,0.1911 4.4328,0.8004 6.9707,3.6584 0.2685,0.3046 0.5267,0.6325 0.7745,0.9888 2.3675,3.4183 1.9415,7.0843 1.8073,8.0034 0.5318,-0.6583 1.3683,-1.5464 2.5817,-2.3235 3.4725,-2.2255 7.1902,-1.735 8.2616,-1.5491 5.8658,1.0172 8.5766,6.062 8.778,6.4544 0.6274,1.2186 1.9983,4.3916 1.0327,8.2616 -0.7539,3.0258 -2.5456,4.9183 -3.3563,5.6799 h 18.3331 c 4.7324,7.0559 9.4644,14.1144 14.1974,21.1704 z"
       fill="#4ba786"
       id="path16" />
  </g>
  <defs
     id="defs16">
    <clipPath
       id="clip0_336_16022">
      <rect
         width="150"
         height="88.037903"
         fill="#ffffff"
         id="rect16"
         x="0"
         y="0" />
    </clipPath>
  </defs>
  <text
     xml:space="preserve"
     style="font-style:normal;font-weight:normal;font-size:40px;line-height:1.25;font-family:sans-serif;letter-spacing:0px;word-spacing:0px;fill:#000000;fill-opacity:1;stroke:none"
     x="35.315536"
     y="119.66019"
     id="text16"><tspan
       sodipodi:role="line"
       id="tspan16"
       x="35.315536"
       y="119.66019"
       style="font-style:normal;font-variant:normal;font-weight:normal;font-stretch:normal;font-family:'Berlin Type';-inkscape-font-specification:'Berlin Type'">beta</tspan></text>
</svg>
